<?xml version="1.0" standalone="no"?><!DOCTYPE svg PUBLIC "-//W3C//DTD SVG 1.1//EN" "http://www.w3.org/Graphics/SVG/1.1/DTD/svg11.dtd"><svg t="1491379231617" class="icon" style="" viewBox="0 0 1024 1024" version="1.1" xmlns="http://www.w3.org/2000/svg" p-id="1583" xmlns:xlink="http://www.w3.org/1999/xlink" width="200" height="200"><defs><style type="text/css"></style></defs><path d="M820.243 380.699H682.351v-37.428c0-12.438-9.705-22.563-21.629-22.563H518.32v-28.222h38.745c3.918 6.719 11.124 11.303 19.455 11.303h57.375c12.448 0 22.584-10.134 22.584-22.585v-57.388c0-12.438-10.136-22.558-22.584-22.558h-51.881c-3.725-7.352-11.278-12.453-20.073-12.453H518.32v-9.227c0-8.451-6.846-15.298-15.295-15.298-8.445 0-15.294 6.847-15.294 15.298V320.71H350.445c-11.937 0-21.643 10.124-21.643 22.563v37.428H199.587c-12.454 0-22.587 10.123-22.587 22.56v402.15C177 817.864 187.133 828 199.587 828H820.243c12.454 0 22.585-10.136 22.585-22.589v-402.15c0-12.439-10.131-22.562-22.585-22.562zM584.526 269.922V231.85h41.362v41.347h-41.362v-3.275z m-66.206-50.527h35.613v42.496H518.32v-42.496zM279.51 797.404h-71.915v-28.321h71.915v28.321z m-71.915-330.041v-56.071h121.207v56.071H207.595zM350.71 797.404h-40.607v-28.321h40.607v28.321z m0.001-58.914h-40.608V593.509c0-11.19 9.108-20.29 20.289-20.29 11.203 0 20.319 9.1 20.319 20.29V738.49zM374 567.287c-0.206-0.34-0.424-0.672-0.637-1.007H374v1.007z m88.577 230.117H381.3v-28.321h81.277v28.321z m71.195 0h-40.607v-28.321h40.607v28.321z m0.002-58.914h-40.607V593.509c0-11.19 9.105-20.29 20.305-20.29 11.194 0 20.302 9.1 20.302 20.29V738.49z m111.863 58.914h-81.269v-28.321h81.269v28.321z m6.119-330.041H359.393v-56.071h292.363v56.071z m65.086 330.041h-40.61v-28.321h40.61v28.321z m0-58.914h-40.61V593.509c0-11.19 9.105-20.29 20.305-20.29 11.194 0 20.305 9.1 20.305 20.29V738.49z m95.393 58.914h-64.803v-28.321h64.803v28.321z m0-330.041H682.351v-56.071h129.884v56.071z" fill="#515151" p-id="1584"></path></svg>